<svg width="30" height="30" viewBox="0 0 30 30" fill="none" xmlns="http://www.w3.org/2000/svg">
<g clip-path="url(#clip0_74_15)">
<path d="M26.3702 8.59686C26.9983 7.28514 26.9093 5.69604 25.8311 4.61784L25.3822 4.16898C24.304 3.09078 22.6721 2.91924 21.4032 3.62988C20.5101 4.13004 18.6201 3.09006 18.4802 2.41644C18.1864 1.00176 16.8211 0 15.3063 0L14.535 0.03918C12.7613 0.1293 11.3694 1.59372 11.3694 3.36972C11.43 4.14 10.11 4.71 9.34326 4.20888C8.02734 2.89296 5.8938 2.89296 4.57788 4.20888L4.20882 4.57794C3.0804 5.70642 2.9493 7.41828 3.72672 8.736C4.26 9.63996 3.73998 11.24 2.86386 11.4554C1.26966 11.8474 0 13.02 0 14.7479V15.3057C0 16.8359 1.11468 17.9777 2.50128 18.4696C3.93996 18.9799 3.8265 21.0903 3.67902 21.3432C2.92656 22.6333 3.10314 24.3163 4.20888 25.4221L4.57794 25.7911C5.6781 26.8913 7.3212 27.0195 8.63742 26.3322C9.58002 25.84 11.3401 26.76 11.486 27.5122C11.7689 28.9697 13.1833 30 14.7392 30H15.2193C16.7446 30 18.0361 28.999 18.4726 27.6179C18.7581 26.7148 20.1401 25.8 21.5148 26.3783C22.8226 26.9285 24.4335 26.7797 25.4555 25.7577L25.7912 25.4221C27.1071 24.1061 27.1071 21.9726 25.7912 20.6567C25.2001 20.12 25.9601 18.64 26.6303 18.6306C28.4914 18.6306 30.0001 17.1219 30.0001 15.2609V14.684C30.0001 13.1344 28.9714 11.7522 27.5236 11.434C26.55 11.22 26.055 9.255 26.3702 8.59686V8.59686Z" fill="#654DC7"/>
<path d="M12.3753 19.5798L8.46505 15.6695C7.99639 15.2009 7.99639 14.4411 8.46505 13.9725C8.93371 13.5038 9.69349 13.5038 10.1621 13.9725L13.2238 17.0342L19.8379 10.4202C20.3065 9.95154 21.0663 9.95154 21.5349 10.4202C22.0035 10.8889 22.0036 11.6486 21.5349 12.1172L14.0724 19.5798C13.58 20 12.7 19.94 12.3753 19.5798V19.5798Z" fill="#EBEBEB"/>
</g>
<defs>
<clipPath id="clip0_74_15">
<rect width="30" height="30" fill="white"/>
</clipPath>
</defs>
</svg>
