<svg width="195" height="195" viewBox="0 0 195 195" fill="none" xmlns="http://www.w3.org/2000/svg">
<g clip-path="url(#clip0_39_1081)">
<path d="M77.4964 65.713L76.2978 67.2348C76.2978 67.2348 75.1389 67.7076 74.713 67.5882L68.8925 63.0041L68.57 62.5341L68.0456 62.8139L53.5203 51.374L53.4926 51.3298L53.0158 50.5864L47.5715 47.337C47.5715 47.337 47.421 47.2065 47.2198 47.0004C46.6553 46.4232 45.6946 45.2539 46.559 44.7219C46.559 44.7219 47.4144 43.0968 48.3253 42.4793C48.3253 42.4793 49.3098 41.3938 50.6131 41.7707C51.9165 42.1492 55.4372 43.6661 57.2273 44.6885C57.2273 44.6885 58.9791 45.3755 60.0351 45.2983C60.0351 45.2983 62.2362 45.3543 64.5383 45.9517C65.7785 46.2744 66.9527 46.8133 68.0288 47.5089C70.1114 48.8541 74.5473 51.8933 76.7104 54.6666C78.5474 57.0237 79.0443 59.5008 79.1618 60.9879C79.2264 61.8045 78.9786 62.609 78.4717 63.2527L78.0169 63.8301L77.6778 64.6447C77.6787 64.6454 77.8541 65.2588 77.4964 65.713Z" fill="#453293"/>
<path d="M53.7181 51.068C53.6464 51.1591 53.5711 51.2472 53.4925 51.3299L53.0158 50.5864L47.5715 47.337C47.5715 47.337 47.421 47.2065 47.2198 47.0004C47.3382 46.7555 47.4852 46.5197 47.6605 46.2971C48.9777 44.6246 51.4022 44.3365 53.0747 45.6538C54.7473 46.971 55.0354 49.3955 53.7181 51.068Z" fill="#312465"/>
<path d="M48.7399 51.1579C50.107 52.2346 52.088 51.9991 53.1647 50.6321C54.2413 49.265 54.0059 47.284 52.6389 46.2073C51.2718 45.1306 49.2908 45.366 48.2141 46.7331C47.1374 48.1002 47.3728 50.0812 48.7399 51.1579Z" fill="#453293"/>
<path d="M68.4084 62.6198L68.5706 62.5331L68.8932 63.0031L74.4644 67.3909C75.7726 65.7186 75.4829 63.3019 73.814 61.9875C72.1442 60.6724 69.7269 60.9571 68.4084 62.6198Z" fill="#312465"/>
<path d="M69.4782 67.4909C70.8452 68.5676 72.8263 68.3322 73.903 66.9651C74.9796 65.598 74.7442 63.617 73.3771 62.5403C72.0101 61.4636 70.029 61.699 68.9524 63.0661C67.8757 64.4332 68.1111 66.4142 69.4782 67.4909Z" fill="#453293"/>
<path d="M69.3758 49.5023C68.848 49.115 68.5088 48.8761 68.5016 48.8719L68.4825 48.8584L68.4641 48.8439C68.4141 48.8015 68.3626 48.761 68.3111 48.7204C66.0666 46.9527 62.7803 46.5248 61.0209 46.4263C60.2263 46.3815 59.426 46.5691 58.7434 46.9553L66.3459 52.0177L69.3758 49.5023Z" fill="#312465"/>
<path d="M75.7054 55.2127C75.2394 54.3421 73.6813 52.8379 71.3108 50.971C71.0331 50.7523 70.7615 50.5429 70.5048 50.3467L67.938 53.0762L75.4718 58.0934C75.599 57.9791 75.7175 57.8683 75.8219 57.7642L75.83 57.7558L75.8391 57.748C76.2554 57.3727 76.0079 56.0261 75.7054 55.2127Z" fill="#312465"/>
<path d="M49.1956 42.4377C49.1956 42.4377 51.0834 42.0667 52.1188 43.0222C52.3706 43.2548 52.8902 44.2465 51.0999 43.9375C50.54 43.8407 49.6691 43.3574 49.0743 42.9039C48.5929 42.5352 49.1956 42.4377 49.1956 42.4377Z" fill="#312465"/>
<path d="M78.0179 63.831L78.4727 63.2535C78.6689 63.0044 78.8134 62.7263 78.9291 62.4375C78.571 62.075 78.0931 61.6584 77.8038 61.6928C77.4192 61.7385 76.7993 62.5256 76.845 62.9102C76.8833 63.2324 77.5245 63.6554 77.9807 63.9179L78.0179 63.831Z" fill="#312465"/>
<path d="M49.388 50.3348C50.3006 51.0535 51.623 50.8964 52.3417 49.9838C53.0604 49.0712 52.9033 47.7488 51.9907 47.0301C51.0782 46.3114 49.7557 46.4685 49.037 47.3811C48.3183 48.2937 48.4755 49.6161 49.388 50.3348Z" fill="#453293"/>
<path d="M49.6275 50.0306C50.372 50.6169 51.4508 50.4887 52.0372 49.7442C52.6235 48.9998 52.4953 47.9209 51.7508 47.3346C51.0063 46.7483 49.9275 46.8765 49.3412 47.6209C48.7549 48.3654 48.8831 49.4442 49.6275 50.0306Z" fill="#312465"/>
<path d="M49.9255 49.6526C50.4612 50.0746 51.2376 49.9823 51.6595 49.4466C52.0815 48.9108 51.9892 48.1344 51.4535 47.7125C50.9177 47.2905 50.1413 47.3828 49.7194 47.9186C49.2974 48.4543 49.3897 49.2307 49.9255 49.6526Z" fill="#453293"/>
<path d="M70.1263 66.6678C71.0389 67.3865 72.3613 67.2294 73.08 66.3168C73.7987 65.4042 73.6416 64.0818 72.729 63.3631C71.8164 62.6444 70.494 62.8015 69.7753 63.7141C69.0566 64.6267 69.2137 65.9491 70.1263 66.6678Z" fill="#453293"/>
<path d="M70.3658 66.3636C71.1103 66.9499 72.1891 66.8217 72.7754 66.0772C73.3618 65.3328 73.2336 64.2539 72.4891 63.6676C71.7446 63.0813 70.6658 63.2095 70.0795 63.9539C69.4931 64.6984 69.6213 65.7772 70.3658 66.3636Z" fill="#312465"/>
<path d="M70.6637 65.9856C71.1995 66.4076 71.9759 66.3153 72.3978 65.7796C72.8198 65.2438 72.7275 64.4675 72.1918 64.0455C71.656 63.6236 70.8796 63.7158 70.4577 64.2516C70.0357 64.7873 70.128 65.5637 70.6637 65.9856Z" fill="#453293"/>
<path d="M60.5221 48.1384L62.1222 49.2034L66.44 47.616C65.6484 47.2667 64.8278 47.0242 64.0366 46.8465L60.5221 48.1384Z" fill="#654DC7"/>
<path d="M62.6861 49.579L63.5206 50.1349L67.9813 48.4947C67.7003 48.2972 67.4095 48.1159 67.1068 47.9535L62.6861 49.579Z" fill="#654DC7"/>
<path d="M68.3723 53.3663L69.9724 54.4313L73.7623 53.0375C73.3677 52.676 72.9205 52.2866 72.4249 51.8754L68.3723 53.3663Z" fill="#654DC7"/>
<path d="M70.5354 54.8062L71.3699 55.3621L74.8325 54.0889C74.647 53.8892 74.4438 53.68 74.2096 53.4553L70.5354 54.8062Z" fill="#654DC7"/>
</g>
<path d="M122.234 70.1778L99.5636 69.7169C98.8165 69.7018 98.1986 70.2951 98.1834 71.0421L98.1665 71.8752C98.1513 72.6223 98.7446 73.2402 99.4917 73.2554L122.162 73.7162C122.91 73.7314 123.527 73.1381 123.543 72.391L123.56 71.558C123.575 70.8109 122.981 70.193 122.234 70.1778Z" fill="#654DC7"/>
<path d="M122.666 71.9566L99.0594 71.4767C98.5709 71.4668 98.1668 71.8548 98.1568 72.3434C98.1469 72.8319 98.5349 73.2361 99.0235 73.246L122.63 73.7258C123.119 73.7358 123.523 73.3477 123.533 72.8592C123.543 72.3706 123.155 71.9665 122.666 71.9566Z" fill="#453293"/>
<path d="M101.139 50.4094L105.304 50.4941L105.05 62.9884L100.885 62.9038L101.139 50.4094Z" fill="#654DC7"/>
<path d="M101.139 50.4092L102.801 50.443L102.547 62.9375L100.885 62.9037L101.139 50.4092Z" fill="#453293"/>
<path d="M101.139 50.4094L105.304 50.4941L105.218 54.7314C103.831 54.6704 102.443 54.596 101.056 54.511L101.139 50.4094Z" fill="#453293"/>
<path d="M117.281 50.7373L121.445 50.822L121.191 63.3163L117.027 63.2317L117.281 50.7373Z" fill="#654DC7"/>
<path d="M121.445 50.822L121.362 54.9235C119.972 54.9521 118.584 54.97 117.195 54.9746L117.281 50.7373L121.445 50.822L121.445 50.822Z" fill="#654DC7"/>
<path d="M117.281 50.7373L118.943 50.7711L118.689 63.2656L117.027 63.2318L117.281 50.7373Z" fill="#453293"/>
<path d="M104.226 62.9717C103.665 64.3768 103.134 65.9139 102.641 67.4794C100.588 73.9994 99.2047 81.0034 99.2047 81.0034L95.3107 80.9243C95.3983 76.6169 96.2697 71.6066 97.2105 67.3689C97.5778 65.7166 97.9551 64.1817 98.3009 62.8511L104.226 62.9717Z" fill="#453293"/>
<path d="M98.3008 62.8511L104.226 62.9715C103.665 64.3767 103.133 65.9138 102.641 67.4792L97.2105 67.3688C97.5778 65.7165 97.9551 64.1816 98.3008 62.8511Z" fill="#654DC7"/>
<path d="M126.028 81.5487L122.134 81.4695C122.134 81.4695 121.037 74.415 119.25 67.8169C118.822 66.2327 118.353 64.6753 117.85 63.2485L123.775 63.369C124.066 64.7125 124.381 66.2615 124.681 67.9273C125.449 72.1997 126.116 77.2413 126.028 81.5487Z" fill="#453293"/>
<path d="M100.223 62.8902C98.9901 67.6314 97.3541 74.9764 97.2324 80.9632L95.3108 80.9242C95.4324 74.9373 97.0675 67.5923 98.3 62.8511L100.223 62.8902Z" fill="#654DC7"/>
<path d="M124.056 81.5085L122.135 81.4694C122.135 81.4694 120.448 70.6211 117.851 63.2485L119.772 63.2876C122.37 70.6601 124.056 81.5085 124.056 81.5085Z" fill="#654DC7"/>
<path d="M124.681 67.9273L119.251 67.8169C118.822 66.2327 118.353 64.6753 117.851 63.2485L123.775 63.369C124.067 64.7125 124.381 66.2615 124.681 67.9273Z" fill="#654DC7"/>
<path d="M124.882 58.979L97.3734 58.4198C96.0763 58.3934 95.0035 59.4235 94.9772 60.7206L94.9296 63.0593C94.9033 64.3563 95.9333 65.4291 97.2304 65.4555L124.739 66.0147C126.036 66.041 127.109 65.011 127.136 63.7139L127.183 61.3752C127.209 60.0782 126.179 59.0053 124.882 58.979Z" fill="#654DC7"/>
<path d="M103.439 65.5816L97.2303 65.4554C95.9341 65.429 94.9032 64.3563 94.9296 63.0592L94.9771 60.7206C95.0035 59.4236 96.0771 58.3927 97.3733 58.4191L103.582 58.5453C102.285 58.5189 101.212 59.5498 101.186 60.8468L101.138 63.1854C101.112 64.4826 102.142 65.5552 103.439 65.5816Z" fill="#453293"/>
<path d="M122.918 37.6354C115.353 37.1325 107.782 36.9786 100.203 37.1737C98.383 37.2206 96.8605 38.574 96.6022 40.3763C96.1723 43.3765 96.1111 46.3842 96.4187 49.3995C96.6035 51.2107 98.0698 52.6249 99.8865 52.7457C107.451 53.2486 115.022 53.4026 122.601 53.2074C124.421 53.1606 125.944 51.8072 126.202 50.0049C126.632 47.0047 126.693 43.9969 126.385 40.9817C126.201 39.1704 124.734 37.7562 122.918 37.6354Z" fill="#654DC7"/>
<path d="M101.078 52.8214C100.681 52.7974 100.284 52.7725 99.8867 52.7457C98.0696 52.6244 96.6037 51.211 96.4187 49.3992C96.1116 46.3841 96.1728 43.3765 96.6021 40.3764C96.8606 38.5736 98.3828 37.2209 100.203 37.1736C100.601 37.163 100.999 37.1542 101.397 37.1464C100.219 37.6958 99.3499 38.8098 99.1563 40.1647C98.7012 43.3401 98.6365 46.5233 98.9622 49.7145C99.1005 51.0762 99.9239 52.2246 101.078 52.8214Z" fill="#453293"/>
<path d="M52.6405 90.1838C52.6981 90.6863 57.193 91.9745 57.193 91.9745L57.5035 94.6852L58.3003 97.1037L58.1983 100.751L58.6199 104.431C58.6571 104.756 58.8614 105.536 59.3362 105.481L75.4997 103.63L75.3048 101.261L75.6522 99.7568L74.5332 89.9882C74.5332 89.9882 78.6521 87.9934 78.5629 87.2144L76.7905 83.4702L72.5966 79.1694L69.3362 78.2099L59.5916 79.3263L55.8454 81.4431L53.212 87.5541L52.6405 90.1838Z" fill="#453293"/>
<path d="M70.6038 96.9788C71.0798 98.0265 72.3023 97.715 72.3023 97.715C72.3023 97.715 72.715 96.5231 71.7108 95.9611C72.8546 95.8341 72.9382 94.5756 72.9382 94.5756C72.9382 94.5756 71.9335 93.8131 71.0873 94.593C71.3193 93.4659 70.148 92.9982 70.148 92.9982C70.148 92.9982 69.1127 93.7186 69.5936 94.7641C68.593 94.1957 67.7868 95.1657 67.7868 95.1657C67.7868 95.1657 68.1528 96.3727 69.2956 96.2378C68.4445 97.0123 69.116 98.08 69.116 98.08C69.116 98.08 70.377 98.107 70.6038 96.9788Z" fill="#654DC7"/>
<path d="M61.7664 90.2154C62.2424 91.2631 63.4649 90.9516 63.4649 90.9516C63.4649 90.9516 63.8776 89.7597 62.8734 89.1977C64.0172 89.0707 64.1008 87.8122 64.1008 87.8122C64.1008 87.8122 63.0961 87.0496 62.2499 87.8296C62.4819 86.7024 61.3106 86.2347 61.3106 86.2347C61.3106 86.2347 60.2753 86.9552 60.7562 88.0007C59.7556 87.4323 58.9494 88.4023 58.9494 88.4023C58.9494 88.4023 59.3154 89.6092 60.4582 89.4743C59.6071 90.2489 60.2786 91.3165 60.2786 91.3165C60.2786 91.3165 61.5397 91.3436 61.7664 90.2154Z" fill="#654DC7"/>
<path d="M75.4997 103.63C75.8242 103.592 75.9964 102.77 75.9601 102.446L75.6521 99.7567C75.1052 99.0153 74.28 98.6854 74.28 98.6854C74.28 98.6854 72.3103 100.057 73.2254 102.046C71.3211 100.965 69.7866 102.811 69.7866 102.811C69.7866 102.811 69.9154 103.234 70.2338 103.696L75.4997 103.63Z" fill="#EEF1F3"/>
<path d="M75.439 103.1L70.2337 103.696C70.4741 104.045 70.8224 104.417 71.3058 104.646L75.5603 104.159C75.885 104.122 76.1184 103.828 76.0812 103.503L75.9601 102.446C75.9964 102.77 75.7634 103.063 75.439 103.1Z" fill="#DEE7ED"/>
<path d="M60.9043 97.813C62.4488 98.6775 61.8136 100.511 61.8136 100.511C61.8136 100.511 59.9342 100.99 59.2018 99.3784L59.2013 99.3785C59.0566 100.098 58.6385 100.512 58.1984 100.75L57.5037 94.6851C57.7149 93.8026 58.5005 93.256 58.5005 93.256C58.5005 93.256 60.302 93.9753 59.9451 95.7091C61.2466 94.5097 62.7918 95.6822 62.7918 95.6822C62.7918 95.6822 62.6631 97.6181 60.9043 97.813Z" fill="#654DC7"/>
<path d="M56.7899 84.3679C58.3127 85.2205 57.6871 87.0279 57.6871 87.0279C57.6871 87.0279 55.8338 87.5001 55.1117 85.9114C54.862 87.1548 53.7826 87.4734 53.2125 87.5542L54.3016 82.5434C54.3369 82.3784 54.4417 82.2365 54.5889 82.1534L55.8458 81.4432C55.9018 81.6931 55.9098 81.9759 55.8448 82.2933C57.128 81.1109 58.6511 82.2669 58.6511 82.2669C58.6511 82.2669 58.5245 84.1757 56.7899 84.3679Z" fill="#654DC7"/>
<path d="M74.8497 79.8324L73.3902 79.4028C73.3895 79.4023 73.3888 79.4025 73.3882 79.4026C73.3877 79.4023 73.3872 79.4021 73.3867 79.4018L72.5975 79.1695L72.5959 79.169C71.6336 79.1297 70.9464 79.957 70.9464 79.957C70.9464 79.957 71.4444 81.5982 72.9988 81.4148C71.8409 82.4683 72.7541 83.9201 72.7541 83.9201C72.7541 83.9201 74.4696 83.9573 74.7779 82.4228C75.2546 83.4721 76.2815 83.5184 76.7904 83.4702L76.7901 83.4687L75.2178 80.1471C75.1456 79.9945 75.0117 79.88 74.8497 79.8324Z" fill="#654DC7"/>
<path d="M67.4086 75.5275L60.862 76.2774L60.6829 77.9546L61.8315 78.3935L64.5222 79.2679L66.9428 77.808L67.9687 77.2251L67.4086 75.5275Z" fill="#654DC7"/>
<path d="M72.1559 90.0311L70.565 91.2944C70.4748 91.366 70.3517 91.3801 70.2477 91.3307L68.4123 90.4599C68.3181 90.4152 68.2536 90.325 68.2417 90.2214L67.9221 87.4309C67.9031 87.2652 68.022 87.1155 68.1878 87.0965L71.6141 86.704C71.7799 86.685 71.9296 86.804 71.9486 86.9697L72.2682 89.7601C72.28 89.8638 72.2376 89.9662 72.1559 90.0311Z" fill="#654DC7"/>
<path d="M61.8315 78.3936L66.9429 77.8081L66.6761 81.5676L65.2841 85.9308L62.9618 82.0397L61.8315 78.3936Z" fill="#453293"/>
<path d="M67.4087 75.5276L65.2842 85.9309L65.2841 85.9308L60.8622 76.2775L59.5914 79.3263L59.9681 81.5429C59.9947 81.6997 60.1439 81.8049 60.3006 81.7773L61.3611 81.5907C61.5617 81.5553 61.7342 81.7346 61.6912 81.9337L61.4519 83.0418C61.4276 83.1548 61.4734 83.2714 61.5682 83.3375L64.7989 85.5922L64.7985 85.5921L66.9158 104.076L67.4157 104.539L67.7983 103.975L65.6809 85.4905L68.3174 82.5645C68.3948 82.4786 68.4131 82.3546 68.3638 82.2501L67.8802 81.2248C67.7933 81.0406 67.9207 80.827 68.1241 80.816L69.1993 80.7581C69.3582 80.7495 69.4797 80.6133 69.4702 80.4545L69.3359 78.2102L67.4087 75.5276ZM65.2844 85.9311L65.2842 85.9309L65.2848 85.9302L65.2844 85.9311Z" fill="#654DC7"/>
<path d="M66.916 104.076L67.7986 103.975L67.9199 105.034L67.0373 105.136L66.916 104.076Z" fill="#9B3050"/>
<path d="M56.2778 91.8385L56.67 91.36L56.1565 90.7795L52.9104 90.2974C52.8083 90.2823 52.7167 90.2417 52.6402 90.1837L52.54 90.6449C52.4672 90.9796 52.6928 91.3061 53.0316 91.3564L56.2778 91.8385Z" fill="#654DC7"/>
<path d="M56.7573 88.2162C56.7294 87.9724 56.5092 87.7975 56.2655 87.8254C56.0218 87.8533 55.8468 88.0735 55.8748 88.3172L56.1568 90.7794L56.6704 91.3599L57.0664 90.9145L56.7573 88.2162Z" fill="#654DC7"/>
<path d="M57.0658 90.9146L56.1562 90.7795L56.2776 91.8386L57.1925 91.9745L57.0658 90.9146Z" fill="#654DC7"/>
<path d="M78.7647 87.641L78.5627 87.2143C78.5014 87.2881 78.4214 87.3484 78.3254 87.3863L75.272 88.5899L74.898 89.2282L75.3933 89.6489L75.3932 89.649L78.4467 88.4453C78.7653 88.3197 78.9113 87.9506 78.7647 87.641Z" fill="#654DC7"/>
<path d="M66.0234 104.179C66.0636 104.012 66.0714 103.897 66.0714 103.897C66.0714 103.897 64.9296 103.031 63.9683 103.917C64.2317 102.636 62.9012 102.105 62.9012 102.105C62.9012 102.105 61.7247 102.923 62.2709 104.111C61.1341 103.466 60.2178 104.568 60.2178 104.568C60.2178 104.568 60.2513 104.677 60.3282 104.831L63.2346 105.018L66.0234 104.179Z" fill="#EEF1F3"/>
<path d="M60.3286 104.831C60.4882 105.15 60.8359 105.658 61.4663 105.774L65.1288 105.354C65.7168 105.099 65.9404 104.525 66.0238 104.178L60.3286 104.831Z" fill="#DEE7ED"/>
<path d="M74.9897 86.1278C74.9618 85.8841 74.7416 85.7091 74.4979 85.7371C74.2542 85.765 74.0793 85.9851 74.1072 86.2289L74.4163 88.9272L74.8978 89.2284L75.2718 88.59L74.9897 86.1278Z" fill="#654DC7"/>
<path d="M74.4167 88.9273L75.2722 88.59L75.3935 89.6491L74.5333 89.9883L74.4167 88.9273Z" fill="#453293"/>
<path d="M140.622 110.031L133.984 110.029L133.482 110.73C132.769 111.727 131.24 112.206 130.085 111.793L129.898 112.318L142.111 116.677L140.622 110.031Z" fill="#ADACA7"/>
<path d="M141.918 113.74L142.123 110.566L139.478 107.255L135.334 108.143L133.985 110.029L139.873 112.131L139.818 112.991C139.739 114.215 140.619 115.553 141.774 115.965L142.636 116.865L143.873 116.715C142.718 116.302 141.838 114.964 141.918 113.74Z" fill="#453293"/>
<path d="M151.921 114.064L154.02 114.813C155.175 115.225 156.457 114.618 156.87 113.463L158.368 109.264L155.668 103.566L151.921 114.064Z" fill="#453293"/>
<path d="M122.086 101.048C121.673 102.202 122.281 103.485 123.436 103.897L151.921 114.064C153.075 114.476 154.357 113.868 154.77 112.714L159.266 100.116L123.584 96.8484L122.086 101.048Z" fill="#654DC7"/>
<path d="M163.763 87.5182L161.663 86.7688L156.269 108.514L158.368 109.264L165.113 90.3673C165.525 89.2125 164.917 87.9304 163.763 87.5182Z" fill="#654DC7"/>
<path d="M163.013 89.6179C163.425 88.4631 162.818 87.181 161.663 86.7688L133.178 76.6017C132.023 76.1895 130.741 76.7971 130.329 77.9519L123.584 96.8485L156.269 108.514L157.018 106.415L144.724 92.5572L163.013 89.6179Z" fill="#453293"/>
<path d="M163.013 89.6174L160.915 88.8667C160.915 88.8671 144.724 92.5571 144.724 92.5571C144.724 92.5571 154.918 105.665 154.918 105.665L157.018 106.413C157.018 106.413 163.013 89.6177 163.013 89.6174Z" fill="#654DC7"/>
<path d="M160.914 88.8679L132.436 78.7014C132.434 78.7016 126.437 95.4988 126.434 95.4981C126.434 95.4981 154.918 105.663 154.918 105.664C154.919 105.664 160.911 88.8671 160.914 88.8679Z" fill="#654DC7"/>
<path d="M139.477 107.255C140.057 107.462 140.695 107.16 140.902 106.58C141.109 106 140.806 105.363 140.227 105.156C139.647 104.949 139.009 105.251 138.802 105.831C138.595 106.411 138.897 107.048 139.477 107.255Z" fill="#453293"/>
<path d="M147.453 119.176L125.757 111.432C125.467 111.329 125.316 111.01 125.419 110.72C125.523 110.43 125.841 110.279 126.131 110.382L147.827 118.126C148.117 118.23 148.268 118.548 148.165 118.838C148.061 119.128 147.743 119.279 147.453 119.176Z" fill="#8F8F8B"/>
<path d="M100.213 92.8005L86.9263 182.074L41.238 155.759L45.8416 124.828L71.8232 128.259L100.213 92.8005ZM100.292 92.2672L49.5244 100.083L100.292 92.2672Z" fill="#453293"/>
<path d="M71.8074 128.366L100.612 92.3148L49.5245 100.083L30.8618 122.926L71.8074 128.366Z" fill="#654DC7"/>
<path d="M100.292 92.2671L86.9263 182.074L138.298 170.205L142.901 139.274L117.671 135.191L100.703 92.4372L100.292 92.2671Z" fill="#654DC7"/>
<path d="M117.67 135.191L100.612 92.3147L147.224 114.624L158.426 141.911L117.67 135.191Z" fill="#654DC7"/>
<path d="M124.654 44.8146L131.756 53.1677L133.358 60.2617L124.299 62.3372L121.491 49.7994L124.654 44.8146Z" fill="#312465"/>
<path d="M124.521 44.5799L131.022 43.9242L141.106 52.1305L138.168 55.7269L135.231 59.3233L125.179 51.1074L124.521 44.5799Z" fill="#453293"/>
<path d="M125.178 51.1074L124.52 44.5801L138.168 55.727L135.231 59.3234L125.178 51.1074Z" fill="#453293"/>
<path d="M128.392 48.621L128.822 48.0937L129.231 47.5936L130.362 48.5177C131.062 48.0978 131.97 48.1192 132.639 48.6641C133.484 49.3545 133.614 50.6004 132.932 51.4502C132.673 51.7736 132.749 52.1806 133.015 52.3979C133.296 52.6274 133.724 52.5942 133.959 52.2891C134.178 52.0063 134.133 51.5978 133.854 51.3704L134.695 50.3429C135.361 50.8884 135.564 51.7744 135.292 52.5438L136.424 53.4683L136.015 53.9683L135.585 54.4957L134.453 53.5717C133.638 54.0625 132.767 53.9081 132.176 53.4253C131.394 52.7866 131.146 51.5947 131.904 50.6108C132.123 50.3274 132.078 49.9196 131.8 49.6922C131.522 49.464 131.111 49.5024 130.878 49.7726C130.632 50.0585 130.675 50.4858 130.96 50.7196L130.121 51.747C129.453 51.2015 129.251 50.315 129.523 49.545L128.392 48.621Z" fill="#654DC7"/>
<path d="M39.3169 80.5841C39.6272 80.1733 39.8423 79.6815 39.924 79.1365L40.6748 74.1303C40.9584 72.2399 40.2034 70.3618 38.7043 69.2292L35.7622 67.0065C34.2631 65.8739 32.2501 65.6608 30.5089 66.4503L25.5399 68.6306L26.4175 62.1635C26.6788 60.4215 25.4784 58.7976 23.7365 58.5363C21.9946 58.275 20.3707 59.4754 20.1092 61.2173L19.3584 66.2234C19.0749 68.1141 19.83 69.9922 21.3289 71.1246L24.271 73.3473C25.77 74.4797 27.7829 74.6929 29.524 73.9036L34.512 71.4719L33.6157 78.1903C33.3544 79.9323 34.5548 81.5561 36.2967 81.8175C37.4939 81.9971 38.6353 81.4864 39.3169 80.5841Z" fill="#654DC7"/>
<path d="M25.4824 69.1695L25.5398 68.6306L30.5089 66.4503C32.0054 65.7717 33.7024 65.8346 35.1016 66.5845C34.9615 67.8931 34.7706 69.1955 34.559 70.4954C34.5064 70.8182 34.4901 71.1457 34.512 71.472L29.524 73.9036C27.9564 74.6142 26.1688 74.5119 24.7341 73.6583C24.9921 72.1632 25.2478 70.668 25.4824 69.1695Z" fill="#453293"/>
<path d="M155.606 70.7477C155.386 70.1484 155.309 69.4874 155.408 68.8115L156.326 62.6026C156.672 60.2579 158.245 58.3029 160.432 57.5008L164.724 55.9267C166.911 55.1247 169.376 55.5987 171.156 57.1638L176.263 61.5439L177.557 53.5564C177.876 51.3959 179.886 49.9033 182.046 50.2222C184.207 50.5412 185.699 52.5513 185.381 54.7118L184.464 60.9207C184.117 63.2655 182.544 65.2205 180.357 66.0224L176.065 67.5965C173.878 68.3985 171.413 67.9246 169.633 66.3597L164.595 61.6746L163.232 69.9668C162.913 72.1273 160.903 73.62 158.743 73.3011C157.258 73.0818 156.089 72.0639 155.606 70.7477Z" fill="#654DC7"/>
<path d="M176.136 62.2039L176.263 61.5439L171.156 57.1638C169.626 55.8186 167.591 55.2804 165.66 55.6647C165.354 57.2675 165.11 58.8812 164.892 60.4994C164.838 60.9012 164.739 61.2956 164.595 61.6746L169.633 66.3597C171.236 67.7686 173.393 68.2927 175.403 67.7981C175.637 65.9317 175.873 64.066 176.136 62.2039Z" fill="#453293"/>
<path d="M84.3496 31.7188C83.9634 31.7007 83.5761 31.5887 83.2221 31.3742L79.9704 29.4037C78.7425 28.6597 78.0204 27.3218 78.0863 25.9122L78.2154 23.1457C78.2813 21.7361 79.1249 20.4713 80.4169 19.8449L84.0623 18.0222L79.906 15.4234C78.7746 14.7378 78.4132 13.2647 79.0987 12.1333C79.7844 11.0018 81.2574 10.6405 82.3889 11.326L85.6406 13.2964C86.8686 14.0406 87.5906 15.3785 87.5247 16.788L87.3956 19.5544C87.3297 20.964 86.4862 22.2287 85.1942 22.8552L81.3946 24.5681L85.705 27.2768C86.8364 27.9624 87.1978 29.4354 86.5123 30.5669C86.041 31.3445 85.198 31.7584 84.3496 31.7188Z" fill="#654DC7"/>
<path d="M84.4007 18.2478L84.0619 18.0221L80.4165 19.8448C79.306 20.3832 78.5274 21.3934 78.2885 22.5616C79.1116 23.1091 79.9554 23.6243 80.8077 24.1263C81.0193 24.2509 81.2163 24.3988 81.3942 24.5681L85.1938 22.8552C86.357 22.2912 87.1563 21.2097 87.3523 19.9712C86.365 19.4023 85.3787 18.8319 84.4007 18.2478Z" fill="#312465"/>
<path d="M143.063 30.9616L142.12 33.8993C141.839 34.7757 140.901 35.2582 140.024 34.9768L137.087 34.0338C136.21 33.7525 135.728 32.8139 136.009 31.9376L136.952 28.9999C137.233 28.1235 138.172 27.6411 139.048 27.9225L141.986 28.8654C142.862 29.1468 143.345 30.0852 143.063 30.9616Z" fill="#312465"/>
<path d="M129.614 17.3766L131.054 18.142C131.116 18.1748 131.185 18.1819 131.247 18.1616L132.683 17.6888C132.885 17.6221 133.092 17.8494 133.005 18.0448L132.395 19.4277C132.369 19.4869 132.369 19.5569 132.396 19.6215L133.017 21.1297C133.105 21.3427 132.9 21.5283 132.697 21.4202L131.256 20.6548C131.195 20.622 131.125 20.6149 131.063 20.6352L129.628 21.1079C129.425 21.1746 129.219 20.9473 129.305 20.752L129.915 19.3691C129.941 19.3099 129.941 19.2398 129.915 19.1752L129.293 17.6671C129.205 17.454 129.41 17.2685 129.614 17.3766Z" fill="#654DC7"/>
<path d="M130.449 29.4239C130.829 28.6209 130.485 27.6625 129.682 27.2832C128.879 26.9039 127.921 27.2474 127.541 28.0504C127.162 28.8534 127.505 29.8119 128.308 30.1911C129.111 30.5704 130.07 30.2269 130.449 29.4239Z" fill="#654DC7"/>
<defs>
<clipPath id="clip0_39_1081">
<rect width="37.4406" height="37.4406" fill="white" transform="translate(60.3965 26.9126) rotate(38.2232)"/>
</clipPath>
</defs>
</svg>
