<svg width="21" height="18" viewBox="0 0 21 18" fill="none" xmlns="http://www.w3.org/2000/svg">
<path fill-rule="evenodd" clip-rule="evenodd" d="M21 1.5C21 1.10217 20.842 0.720645 20.5607 0.439335C20.2794 0.15804 19.8978 0 19.5 0H1.5C1.1022 0 0.7206 0.15804 0.43935 0.439335C0.1581 0.720645 0 1.10217 0 1.5C0 1.89783 0.1581 2.27936 0.43935 2.56067C0.7206 2.84196 1.1022 3 1.5 3H19.5C19.8978 3 20.2794 2.84196 20.5607 2.56067C20.842 2.27936 21 1.89783 21 1.5ZM21 9C21 8.60217 20.842 8.22065 20.5607 7.93934C20.2794 7.65804 19.8978 7.5 19.5 7.5H10.5C10.1022 7.5 9.7206 7.65804 9.43935 7.93934C9.1581 8.22065 9 8.60217 9 9C9 9.3978 9.1581 9.7794 9.43935 10.0607C9.7206 10.3419 10.1022 10.5 10.5 10.5H19.5C19.8978 10.5 20.2794 10.3419 20.5607 10.0607C20.842 9.7794 21 9.3978 21 9ZM21 16.5C21 16.1022 20.842 15.7206 20.5607 15.4394C20.2794 15.1581 19.8978 15 19.5 15H1.5C1.1022 15 0.7206 15.1581 0.43935 15.4394C0.1581 15.7206 0 16.1022 0 16.5C0 16.8978 0.1581 17.2794 0.43935 17.5607C0.7206 17.8419 1.1022 18 1.5 18H19.5C19.8978 18 20.2794 17.8419 20.5607 17.5607C20.842 17.2794 21 16.8978 21 16.5Z" fill="#EBEBEB"/>
</svg>
